HIERARCHY
ROOT hip
{
  OFFSET 0 0 0
  CHANNELS 6 Xposition Yposition Zposition Zrotation Yrotation Xrotation
  JOINT abdomen
  {
    OFFSET 0 20.6881 -0.73152
    CHANNELS 3 Zrotation Xrotation Yrotation
    JOINT chest
    {
      OFFSET 0 11.7043 -0.48768
      CHANNELS 3 Zrotation Xrotation Yrotation
      JOINT neck
      {
        OFFSET 0 22.1894 -2.19456
        CHANNELS 3 Zrotation Xrotation Yrotation
        JOINT head
        {
          OFFSET -0.24384 7.07133 1.2192
          CHANNELS 3 Zrotation Xrotation Yrotation
          JOINT leftEye
          {
            OFFSET 4.14528 8.04674 8.04672
            CHANNELS 3 Zrotation Xrotation Yrotation
            End Site
            {
              OFFSET 1 0 0
            }
          }
          JOINT rightEye
          {
            OFFSET -3.6576 8.04674 8.04672
            CHANNELS 3 Zrotation Xrotation Yrotation
            End Site
            {
              OFFSET 1 0 0
            }
          }
        }
      }
      JOINT rCollar
      {
        OFFSET -2.68224 19.2634 -4.8768
        CHANNELS 3 Zrotation Xrotation Yrotation
        JOINT rShldr
        {
          OFFSET -8.77824 -1.95073 1.46304
          CHANNELS 3 Zrotation Xrotation Yrotation
          JOINT rForeArm
          {
            OFFSET -28.1742 -1.7115 0.48768
            CHANNELS 3 Zrotation Xrotation Yrotation
            JOINT rHand
            {
              OFFSET -22.5879 0.773209 7.07136
              CHANNELS 3 Zrotation Xrotation Yrotation
              JOINT rThumb1
              {
                OFFSET -1.2192 -0.487915 3.41376
                CHANNELS 3 Zrotation Xrotation Yrotation
                JOINT rThumb2
                {
                  OFFSET -3.37035 -0.52449 3.41376
                  CHANNELS 3 Zrotation Xrotation Yrotation
                  End Site
                  {
                    OFFSET -1.78271 -1.18214 1.43049
                  }
                }
              }
              JOINT rIndex1
              {
                OFFSET -7.75947 0.938293 5.60832
                CHANNELS 3 Zrotation Xrotation Yrotation
                JOINT rIndex2
                {
                  OFFSET -2.54057 -0.884171 1.56538
                  CHANNELS 3 Zrotation Xrotation Yrotation
                  End Site
                  {
                    OFFSET -1.62519 -0.234802 1.16502
                  }
                }
              }
              JOINT rMid1
              {
                OFFSET -8.24714 1.18213 3.41376
                CHANNELS 3 Zrotation Xrotation Yrotation
                JOINT rMid2
                {
                  OFFSET -3.10165 -0.590103 1.0647
                  CHANNELS 3 Zrotation Xrotation Yrotation
                  End Site
                  {
                    OFFSET -2.48547 -0.328903 0.83742
                  }
                }
              }
              JOINT rRing1
              {
                OFFSET -8.82822 0.546677 1.51678
                CHANNELS 3 Zrotation Xrotation Yrotation
                JOINT rRing2
                {
                  OFFSET -2.60934 -0.819778 -0.0198488
                  CHANNELS 3 Zrotation Xrotation Yrotation
                  End Site
                  {
                    OFFSET -2.33842 -0.294052 0.168128
                  }
                }
              }
              JOINT rPinky1
              {
                OFFSET -8.27202 -0.0477905 -0.4584
                CHANNELS 3 Zrotation Xrotation Yrotation
                JOINT rPinky2
                {
                  OFFSET -1.82734 -0.647385 -0.700984
                  CHANNELS 3 Zrotation Xrotation Yrotation
                  End Site
                  {
                    OFFSET -1.69225 -0.51767 -0.607171
                  }
                }
              }
            }
          }
        }
      }
      JOINT lCollar
      {
        OFFSET 2.68224 19.2634 -4.8768
        CHANNELS 3 Zrotation Xrotation Yrotation
        JOINT lShldr
        {
          OFFSET 8.77824 -1.95073 1.46304
          CHANNELS 3 Zrotation Xrotation Yrotation
          JOINT lForeArm
          {
            OFFSET 28.1742 -1.7115 0.48768
            CHANNELS 3 Zrotation Xrotation Yrotation
            JOINT lHand
            {
              OFFSET 22.5879 0.773209 7.07136
              CHANNELS 3 Zrotation Xrotation Yrotation
              JOINT lThumb1
              {
                OFFSET 1.2192 -0.487915 3.41376
                CHANNELS 3 Zrotation Xrotation Yrotation
                JOINT lThumb2
                {
                  OFFSET 3.37035 -0.52449 3.41376
                  CHANNELS 3 Zrotation Xrotation Yrotation
                  End Site
                  {
                    OFFSET 1.78271 -1.18214 1.43049
                  }
                }
              }
              JOINT lIndex1
              {
                OFFSET 7.75947 0.938293 5.60832
                CHANNELS 3 Zrotation Xrotation Yrotation
                JOINT lIndex2
                {
                  OFFSET 2.54057 -0.884171 1.56538
                  CHANNELS 3 Zrotation Xrotation Yrotation
                  End Site
                  {
                    OFFSET 1.62519 -0.234802 1.16502
                  }
                }
              }
              JOINT lMid1
              {
                OFFSET 8.24714 1.18213 3.41376
                CHANNELS 3 Zrotation Xrotation Yrotation
                JOINT lMid2
                {
                  OFFSET 3.10165 -0.590103 1.0647
                  CHANNELS 3 Zrotation Xrotation Yrotation
                  End Site
                  {
                    OFFSET 2.48547 -0.328903 0.83742
                  }
                }
              }
              JOINT lRing1
              {
                OFFSET 8.82822 0.546677 1.51678
                CHANNELS 3 Zrotation Xrotation Yrotation
                JOINT lRing2
                {
                  OFFSET 2.60934 -0.819778 -0.0198488
                  CHANNELS 3 Zrotation Xrotation Yrotation
                  End Site
                  {
                    OFFSET 2.33842 -0.294052 0.168128
                  }
                }
              }
              JOINT lPinky1
              {
                OFFSET 8.27202 -0.0477905 -0.4584
                CHANNELS 3 Zrotation Xrotation Yrotation
                JOINT lPinky2
                {
                  OFFSET 1.82734 -0.647385 -0.700984
                  CHANNELS 3 Zrotation Xrotation Yrotation
                  End Site
                  {
                    OFFSET 1.69225 -0.51767 -0.607171
                  }
                }
              }
            }
          }
        }
      }
    }
  }
  JOINT rButtock
  {
    OFFSET -8.77824 4.35084 1.2192
    CHANNELS 3 Zrotation Xrotation Yrotation
    JOINT rThigh
    {
      OFFSET 0 -1.70687 -2.19456
      CHANNELS 3 Zrotation Xrotation Yrotation
      JOINT rShin
      {
        OFFSET 0 -36.8199 0.73152
        CHANNELS 3 Zrotation Xrotation Yrotation
        JOINT rFoot
        {
          OFFSET 0.73152 -45.1104 -5.12064
          CHANNELS 3 Zrotation Xrotation Yrotation
          End Site
          {
            OFFSET -1.1221 -3.69964 12.103
          }
        }
      }
    }
  }
  JOINT lButtock
  {
    OFFSET 8.77824 4.35084 1.2192
    CHANNELS 3 Zrotation Xrotation Yrotation
    JOINT lThigh
    {
      OFFSET 0 -1.70687 -2.19456
      CHANNELS 3 Zrotation Xrotation Yrotation
      JOINT lShin
      {
        OFFSET 0 -36.8199 0.73152
        CHANNELS 3 Zrotation Xrotation Yrotation
        JOINT lFoot
        {
          OFFSET -0.73152 -45.1104 -5.12064
          CHANNELS 3 Zrotation Xrotation Yrotation
          End Site
          {
            OFFSET 1.1221 -3.69964 12.103
          }
        }
      }
    }
  }
}
MOTION
Frames:	4
Frame Time:	0.00833333
286.374 83.282 -25.8022 0.0 0.0 0.0 -2.96294 0.00183636 -0.0799173 -0.816471 0.0169097 -0.141255 -1.26462e-13 -3.18055e-15 -5.46658e-16 -3.7891e-13 -1.27222e-14 -1.54213e-15 -0.0 0.0 0.0 -0.0 0.0 0.0 -6.35167e-14 -2.71776e-16 0.0 -1.3278e-12 -6.44187e-15 -8.74653e-15 -2.28605e-11 6.66048e-12 9.22361e-14 -2.62062e-10 -7.95929e-12 -1.46624e-12 -6.18085e-10 -2.81353e-12 -2.91021e-12 -1.06741e-09 -4.85989e-12 -5.01176e-12 -6.18078e-10 -2.81161e-12 -2.91657e-12 7.73091 5.47488 0.417314 -6.18086e-10 -2.8133e-12 -2.91021e-12 2.90554 0.965183 0.102902 -6.18071e-10 -2.8129e-12 -2.91021e-12 10.2786 0.731801 0.0259123 -6.18088e-10 -2.8132e-12 -2.90385e-12 2.22167 -0.733487 -0.20892 -6.36103e-14 -2.74882e-16 -4.47265e-16 -1.33153e-12 -5.82066e-15 -1.03368e-14 -2.29301e-11 -7.04234e-12 1.20861e-13 -2.62012e-10 5.78168e-12 -1.47896e-12 -6.18121e-10 -2.73984e-12 -2.89749e-12 -1.06747e-09 -4.73585e-12 -4.98075e-12 -6.18129e-10 -2.73607e-12 -2.89749e-12 -7.73091 5.47488 -0.417314 -6.18122e-10 -2.73925e-12 -2.90703e-12 -2.90554 0.965183 -0.102902 -6.18132e-10 -2.73915e-12 -2.90226e-12 -10.2786 0.731801 -0.0259123 -6.18124e-10 -2.73965e-12 -2.91339e-12 -2.22167 -0.733487 0.20892 -2.03217e-16 0.0 -3.88251e-19 -1.77167 -1.93398 0.0122059 -0.00867276 -2.07864 -0.071283 -0.478255 3.99976 0.135349 2.03217e-16 0.0 3.88251e-19 -2.72751 -9.0434 0.303158 -0.00827371 10.7979 -0.214968 0.53729 -1.7672 -0.024088
279.33 82.4499 -31.6722 -39.0565 -87.144 37.2474 -2.71759 0.785622 -0.309143 -1.40574 0.853939 -0.229716 -0.0411178 4.02964 -0.280071 2.66624 -11.2594 0.297663 -0.0 0.0 0.0 -0.0 0.0 0.0 -4.57694e-14 1.14159e-13 3.86427e-15 22.904 6.32172 -0.295355 -4.57421 -2.15407 7.06053 4.28227e-05 -0.151925 -0.0213514 -3.41156e-10 -4.87833e-11 1.91408e-10 -5.88374e-10 -8.44551e-11 3.30938e-10 -3.41149e-10 -4.87801e-11 1.91397e-10 7.73091 5.47488 0.417314 -3.41156e-10 -4.87821e-11 1.91408e-10 2.90554 0.965183 0.102902 -3.41143e-10 -4.87818e-11 1.91406e-10 10.2786 0.731801 0.0259123 -3.41158e-10 -4.8782e-11 1.9141e-10 2.22167 -0.733487 -0.20892 -4.58757e-14 1.1416e-13 3.42709e-15 -21.6609 7.49206 -0.397796 4.0445 -1.80416 -6.35307 -0.0507204 -4.99929 0.692979 -4.51372e-10 -1.51941e-12 -1.69921e-10 -7.77957e-10 -2.8743e-12 -2.93637e-10 -4.51379e-10 -1.5169e-12 -1.6992e-10 -7.73091 5.47488 -0.417314 -4.51373e-10 -1.51951e-12 -1.69929e-10 -2.90554 0.965183 -0.102902 -4.51382e-10 -1.51935e-12 -1.69926e-10 -10.2786 0.731801 -0.0259123 -4.51372e-10 -1.51974e-12 -1.69938e-10 -2.22167 -0.733487 0.20892 -2.03217e-16 0.0 -3.88251e-19 -0.777768 -4.48259 1.09344 0.0249429 7.13528 0.116628 -1.01543 -2.45621 -3.53231 2.03217e-16 0.0 3.88251e-19 -1.18587 -8.76864 1.91406 -0.0361044 15.035 -0.263606 0.724406 -5.49053 1.52022
279.368 82.4503 -31.7848 -37.4988 -87.1536 35.6709 -2.45308 1.61175 -0.551174 -2.02465 1.73954 -0.32325 -0.0400971 8.2911 -0.580998 5.62407 -23.1599 0.653381 -0.0 0.0 0.0 -0.0 0.0 0.0 -2.7053e-14 2.30627e-13 7.53829e-15 47.1891 12.9948 -0.621933 -8.83356 -4.31941 14.5507 -3.69034e-05 -0.307361 -0.0431968 -4.73452e-11 -8.68578e-11 4.67446e-10 -7.9974e-11 -1.50426e-10 8.08196e-10 -4.73377e-11 -8.68534e-11 4.67429e-10 7.73091 5.47488 0.417314 -4.73445e-11 -8.68555e-11 4.67445e-10 2.90554 0.965183 0.102902 -4.73333e-11 -8.68555e-11 4.67442e-10 10.2786 0.731801 0.0259123 -4.73465e-11 -8.68555e-11 4.67443e-10 2.22167 -0.733487 -0.20892 -2.71736e-14 2.30632e-13 7.10966e-15 -44.4418 15.4219 -0.84458 7.89057 -3.63926 -13.0934 0.0291215 -10.2858 1.44388 -2.83184e-10 1.27545e-11 -4.33133e-10 -4.85004e-10 2.14733e-11 -7.48614e-10 -2.8319e-10 1.27557e-11 -4.33132e-10 -7.73091 5.47488 -0.417314 -2.83185e-10 1.27537e-11 -4.3314e-10 -2.90554 0.965183 -0.102902 -2.83193e-10 1.27539e-11 -4.3314e-10 -10.2786 0.731801 -0.0259123 -2.83181e-10 1.27536e-11 -4.33152e-10 -2.22167 -0.733487 0.20892 -2.03217e-16 0.0 -3.88251e-19 0.376695 -7.1713 2.24974 -0.00750915 16.8731 0.327476 -2.48842 -9.2144 -7.49718 2.03217e-16 0.0 3.88251e-19 0.424945 -8.46651 3.61544 -0.0571871 19.5069 -0.318734 1.143 -9.41856 3.18095
279.383 82.4552 -31.9054 -35.9411 -87.1276 34.0486 -2.20807 2.35302 -0.768155 -2.57651 2.52795 -0.406957 -0.00289167 12.0877 -0.85714 8.41014 -33.7743 1.05363 -0.0 0.0 0.0 -0.0 0.0 0.0 -1.02748e-14 3.43022e-13 1.15928e-14 68.9172 18.9631 -0.931219 -12.1628 -6.07052 21.2917 -0.000211232 -0.455775 -0.0640561 2.12701e-10 -1.40723e-10 5.80045e-10 3.69706e-10 -2.43645e-10 1.00284e-09 2.12709e-10 -1.40717e-10 5.80024e-10 7.73091 5.47488 0.417314 2.12703e-10 -1.4072e-10 5.80044e-10 2.90554 0.965183 0.102902 2.12712e-10 -1.4072e-10 5.80039e-10 10.2786 0.731801 0.0259123 2.12701e-10 -1.40719e-10 5.80039e-10 2.22167 -0.733487 -0.20892 -1.04065e-14 3.43029e-13 1.11758e-14 -64.6488 22.4717 -1.28044 10.9537 -5.14683 -19.1298 0.221416 -14.9889 2.14401 -1.17873e-10 9.21452e-13 -5.03967e-10 -1.98923e-10 8.4879e-13 -8.70949e-10 -1.17878e-10 9.2146e-13 -5.03965e-10 -7.73091 5.47488 -0.417314 -1.17874e-10 9.19989e-13 -5.03972e-10 -2.90554 0.965183 -0.102902 -1.17883e-10 9.20257e-13 -5.03974e-10 -10.2786 0.731801 -0.0259123 -1.17868e-10 9.20074e-13 -5.03986e-10 -2.22167 -0.733487 0.20892 -2.03217e-16 0.0 -3.88251e-19 1.5021 -9.56674 3.29173 -0.103746 25.5622 0.542777 -4.62041 -15.1002 -11.2505 2.03217e-16 0.0 3.88251e-19 1.85054 -8.20082 5.12885 -0.0678441 23.5093 -0.372328 1.71382 -12.9008 4.70697
